<mxfile host="app.diagrams.net" modified="2023-06-10T16:23:33.426Z" agent="Mozilla/5.0 (Windows NT 10.0; Win64; x64) AppleWebKit/537.36 (KHTML, like Gecko) Chrome/114.0.0.0 Safari/537.36" etag="fvvu7oBHO4ufZFuH7JWj" version="21.3.6" type="device">
  <diagram name="Page-1" id="napGMOMuiwZIVxVhkV7O">
    <mxGraphModel dx="1055" dy="596" grid="1" gridSize="10" guides="1" tooltips="1" connect="1" arrows="1" fold="1" page="1" pageScale="1" pageWidth="827" pageHeight="1169" math="0" shadow="0">
      <root>
        <mxCell id="0" />
        <mxCell id="1" parent="0" />
        <mxCell id="mXD4jLkLA2wHn8T7_V_Z-12" value="IDLE" style="ellipse;whiteSpace=wrap;html=1;points=[[0,0.5,0,0,0],[0.04,0.3,0,0,0],[0.04,0.7,0,0,0],[0.14,0.14,0,0,0],[0.14,0.86,0,0,0],[0.3,0.04,0,0,0],[0.3,0.96,0,0,0],[0.5,0,0,0,0],[0.5,1,0,0,0],[0.69,0.04,0,0,0],[0.69,0.96,0,0,0],[0.85,0.14,0,0,0],[0.85,0.86,0,0,0],[0.96,0.3,0,0,0],[0.96,0.7,0,0,0],[1,0.5,0,0,0]];" vertex="1" parent="1">
          <mxGeometry x="440" y="120" width="80" height="80" as="geometry" />
        </mxCell>
        <mxCell id="mXD4jLkLA2wHn8T7_V_Z-29" value="FORWARD" style="ellipse;whiteSpace=wrap;html=1;points=[[0,0.5,0,0,0],[0.04,0.3,0,0,0],[0.04,0.7,0,0,0],[0.14,0.14,0,0,0],[0.14,0.86,0,0,0],[0.3,0.04,0,0,0],[0.3,0.96,0,0,0],[0.5,0,0,0,0],[0.5,1,0,0,0],[0.69,0.04,0,0,0],[0.69,0.96,0,0,0],[0.85,0.14,0,0,0],[0.85,0.86,0,0,0],[0.96,0.3,0,0,0],[0.96,0.7,0,0,0],[1,0.5,0,0,0]];" vertex="1" parent="1">
          <mxGeometry x="560" y="240" width="80" height="80" as="geometry" />
        </mxCell>
        <mxCell id="mXD4jLkLA2wHn8T7_V_Z-30" value="SPIN" style="ellipse;whiteSpace=wrap;html=1;points=[[0,0.5,0,0,0],[0.04,0.3,0,0,0],[0.04,0.7,0,0,0],[0.14,0.14,0,0,0],[0.14,0.86,0,0,0],[0.3,0.04,0,0,0],[0.3,0.96,0,0,0],[0.5,0,0,0,0],[0.5,1,0,0,0],[0.69,0.04,0,0,0],[0.69,0.96,0,0,0],[0.85,0.14,0,0,0],[0.85,0.86,0,0,0],[0.96,0.3,0,0,0],[0.96,0.7,0,0,0],[1,0.5,0,0,0]];" vertex="1" parent="1">
          <mxGeometry x="440" y="360" width="80" height="80" as="geometry" />
        </mxCell>
        <mxCell id="mXD4jLkLA2wHn8T7_V_Z-31" value="TURN" style="ellipse;whiteSpace=wrap;html=1;points=[[0,0.5,0,0,0],[0.04,0.3,0,0,0],[0.04,0.7,0,0,0],[0.14,0.14,0,0,0],[0.14,0.86,0,0,0],[0.3,0.04,0,0,0],[0.3,0.96,0,0,0],[0.5,0,0,0,0],[0.5,1,0,0,0],[0.69,0.04,0,0,0],[0.69,0.96,0,0,0],[0.85,0.14,0,0,0],[0.85,0.86,0,0,0],[0.96,0.3,0,0,0],[0.96,0.7,0,0,0],[1,0.5,0,0,0]];" vertex="1" parent="1">
          <mxGeometry x="320" y="240" width="80" height="80" as="geometry" />
        </mxCell>
        <mxCell id="mXD4jLkLA2wHn8T7_V_Z-32" value="" style="endArrow=classic;html=1;entryX=0.04;entryY=0.7;entryDx=0;entryDy=0;entryPerimeter=0;exitX=0.69;exitY=0.04;exitDx=0;exitDy=0;exitPerimeter=0;curved=1;" edge="1" parent="1" source="mXD4jLkLA2wHn8T7_V_Z-31" target="mXD4jLkLA2wHn8T7_V_Z-12">
          <mxGeometry width="50" height="50" relative="1" as="geometry">
            <mxPoint x="420" y="300" as="sourcePoint" />
            <mxPoint x="470" y="250" as="targetPoint" />
            <Array as="points">
              <mxPoint x="400" y="200" />
            </Array>
          </mxGeometry>
        </mxCell>
        <mxCell id="mXD4jLkLA2wHn8T7_V_Z-33" value="" style="endArrow=classic;html=1;exitX=0.14;exitY=0.86;exitDx=0;exitDy=0;exitPerimeter=0;entryX=0.85;entryY=0.14;entryDx=0;entryDy=0;entryPerimeter=0;curved=1;" edge="1" parent="1" source="mXD4jLkLA2wHn8T7_V_Z-12" target="mXD4jLkLA2wHn8T7_V_Z-31">
          <mxGeometry width="50" height="50" relative="1" as="geometry">
            <mxPoint x="420" y="300" as="sourcePoint" />
            <mxPoint x="470" y="250" as="targetPoint" />
            <Array as="points">
              <mxPoint x="430" y="230" />
            </Array>
          </mxGeometry>
        </mxCell>
        <mxCell id="mXD4jLkLA2wHn8T7_V_Z-34" value="" style="endArrow=classic;html=1;entryX=0.3;entryY=0.04;entryDx=0;entryDy=0;entryPerimeter=0;exitX=0.96;exitY=0.7;exitDx=0;exitDy=0;exitPerimeter=0;curved=1;" edge="1" parent="1" source="mXD4jLkLA2wHn8T7_V_Z-12" target="mXD4jLkLA2wHn8T7_V_Z-29">
          <mxGeometry width="50" height="50" relative="1" as="geometry">
            <mxPoint x="420" y="300" as="sourcePoint" />
            <mxPoint x="470" y="250" as="targetPoint" />
            <Array as="points">
              <mxPoint x="560" y="200" />
            </Array>
          </mxGeometry>
        </mxCell>
        <mxCell id="mXD4jLkLA2wHn8T7_V_Z-35" value="" style="endArrow=classic;html=1;entryX=0.85;entryY=0.86;entryDx=0;entryDy=0;entryPerimeter=0;exitX=0.14;exitY=0.14;exitDx=0;exitDy=0;exitPerimeter=0;curved=1;" edge="1" parent="1" source="mXD4jLkLA2wHn8T7_V_Z-29" target="mXD4jLkLA2wHn8T7_V_Z-12">
          <mxGeometry width="50" height="50" relative="1" as="geometry">
            <mxPoint x="420" y="300" as="sourcePoint" />
            <mxPoint x="470" y="250" as="targetPoint" />
            <Array as="points">
              <mxPoint x="530" y="240" />
            </Array>
          </mxGeometry>
        </mxCell>
        <mxCell id="mXD4jLkLA2wHn8T7_V_Z-36" value="" style="endArrow=classic;html=1;entryX=0.69;entryY=0.04;entryDx=0;entryDy=0;entryPerimeter=0;exitX=0.69;exitY=0.96;exitDx=0;exitDy=0;exitPerimeter=0;curved=1;" edge="1" parent="1" source="mXD4jLkLA2wHn8T7_V_Z-12" target="mXD4jLkLA2wHn8T7_V_Z-30">
          <mxGeometry width="50" height="50" relative="1" as="geometry">
            <mxPoint x="420" y="300" as="sourcePoint" />
            <mxPoint x="470" y="250" as="targetPoint" />
            <Array as="points">
              <mxPoint x="520" y="280" />
            </Array>
          </mxGeometry>
        </mxCell>
        <mxCell id="mXD4jLkLA2wHn8T7_V_Z-37" value="" style="endArrow=classic;html=1;entryX=0.3;entryY=0.96;entryDx=0;entryDy=0;entryPerimeter=0;exitX=0.3;exitY=0.04;exitDx=0;exitDy=0;exitPerimeter=0;curved=1;" edge="1" parent="1" source="mXD4jLkLA2wHn8T7_V_Z-30" target="mXD4jLkLA2wHn8T7_V_Z-12">
          <mxGeometry width="50" height="50" relative="1" as="geometry">
            <mxPoint x="420" y="300" as="sourcePoint" />
            <mxPoint x="470" y="250" as="targetPoint" />
            <Array as="points">
              <mxPoint x="440" y="280" />
            </Array>
          </mxGeometry>
        </mxCell>
        <mxCell id="mXD4jLkLA2wHn8T7_V_Z-38" value="" style="endArrow=classic;html=1;entryX=0.96;entryY=0.3;entryDx=0;entryDy=0;entryPerimeter=0;exitX=0.3;exitY=0.96;exitDx=0;exitDy=0;exitPerimeter=0;curved=1;" edge="1" parent="1" source="mXD4jLkLA2wHn8T7_V_Z-29" target="mXD4jLkLA2wHn8T7_V_Z-30">
          <mxGeometry width="50" height="50" relative="1" as="geometry">
            <mxPoint x="420" y="300" as="sourcePoint" />
            <mxPoint x="470" y="250" as="targetPoint" />
            <Array as="points">
              <mxPoint x="560" y="360" />
            </Array>
          </mxGeometry>
        </mxCell>
        <mxCell id="mXD4jLkLA2wHn8T7_V_Z-39" value="" style="endArrow=classic;html=1;entryX=0.14;entryY=0.86;entryDx=0;entryDy=0;entryPerimeter=0;exitX=0.85;exitY=0.14;exitDx=0;exitDy=0;exitPerimeter=0;curved=1;" edge="1" parent="1" source="mXD4jLkLA2wHn8T7_V_Z-30" target="mXD4jLkLA2wHn8T7_V_Z-29">
          <mxGeometry width="50" height="50" relative="1" as="geometry">
            <mxPoint x="420" y="300" as="sourcePoint" />
            <mxPoint x="470" y="250" as="targetPoint" />
            <Array as="points">
              <mxPoint x="530" y="330" />
            </Array>
          </mxGeometry>
        </mxCell>
        <mxCell id="mXD4jLkLA2wHn8T7_V_Z-40" value="" style="endArrow=classic;html=1;exitX=0.04;exitY=0.3;exitDx=0;exitDy=0;exitPerimeter=0;entryX=0.69;entryY=0.96;entryDx=0;entryDy=0;entryPerimeter=0;curved=1;" edge="1" parent="1" source="mXD4jLkLA2wHn8T7_V_Z-30" target="mXD4jLkLA2wHn8T7_V_Z-31">
          <mxGeometry width="50" height="50" relative="1" as="geometry">
            <mxPoint x="420" y="300" as="sourcePoint" />
            <mxPoint x="470" y="250" as="targetPoint" />
            <Array as="points">
              <mxPoint x="400" y="360" />
            </Array>
          </mxGeometry>
        </mxCell>
        <mxCell id="mXD4jLkLA2wHn8T7_V_Z-42" value="" style="endArrow=classic;html=1;exitX=0.85;exitY=0.86;exitDx=0;exitDy=0;exitPerimeter=0;entryX=0.14;entryY=0.14;entryDx=0;entryDy=0;entryPerimeter=0;curved=1;" edge="1" parent="1" source="mXD4jLkLA2wHn8T7_V_Z-31" target="mXD4jLkLA2wHn8T7_V_Z-30">
          <mxGeometry width="50" height="50" relative="1" as="geometry">
            <mxPoint x="420" y="300" as="sourcePoint" />
            <mxPoint x="470" y="250" as="targetPoint" />
            <Array as="points">
              <mxPoint x="430" y="330" />
            </Array>
          </mxGeometry>
        </mxCell>
        <mxCell id="mXD4jLkLA2wHn8T7_V_Z-43" value="" style="endArrow=classic;html=1;exitX=0.96;exitY=0.3;exitDx=0;exitDy=0;exitPerimeter=0;entryX=0.04;entryY=0.3;entryDx=0;entryDy=0;entryPerimeter=0;curved=1;" edge="1" parent="1" source="mXD4jLkLA2wHn8T7_V_Z-31" target="mXD4jLkLA2wHn8T7_V_Z-29">
          <mxGeometry width="50" height="50" relative="1" as="geometry">
            <mxPoint x="420" y="300" as="sourcePoint" />
            <mxPoint x="470" y="250" as="targetPoint" />
            <Array as="points">
              <mxPoint x="480" y="240" />
            </Array>
          </mxGeometry>
        </mxCell>
        <mxCell id="mXD4jLkLA2wHn8T7_V_Z-44" value="" style="endArrow=classic;html=1;entryX=0.96;entryY=0.7;entryDx=0;entryDy=0;entryPerimeter=0;exitX=0.04;exitY=0.7;exitDx=0;exitDy=0;exitPerimeter=0;curved=1;" edge="1" parent="1" source="mXD4jLkLA2wHn8T7_V_Z-29" target="mXD4jLkLA2wHn8T7_V_Z-31">
          <mxGeometry width="50" height="50" relative="1" as="geometry">
            <mxPoint x="420" y="300" as="sourcePoint" />
            <mxPoint x="470" y="250" as="targetPoint" />
            <Array as="points">
              <mxPoint x="480" y="320" />
            </Array>
          </mxGeometry>
        </mxCell>
        <mxCell id="mXD4jLkLA2wHn8T7_V_Z-54" value="" style="verticalLabelPosition=bottom;verticalAlign=top;html=1;shape=mxgraph.basic.arc;startAngle=0.32447487305652417;endAngle=0.09140345256385528;rotation=-165;" vertex="1" parent="1">
          <mxGeometry x="630" y="255" width="50" height="50" as="geometry" />
        </mxCell>
        <mxCell id="mXD4jLkLA2wHn8T7_V_Z-56" value="" style="verticalLabelPosition=bottom;verticalAlign=top;html=1;shape=mxgraph.basic.arc;startAngle=0.32447487305652417;endAngle=0.09140345256385528;rotation=105;" vertex="1" parent="1">
          <mxGeometry x="455" y="80" width="50" height="50" as="geometry" />
        </mxCell>
        <mxCell id="mXD4jLkLA2wHn8T7_V_Z-63" value="" style="verticalLabelPosition=bottom;verticalAlign=top;html=1;shape=mxgraph.basic.arc;startAngle=0.32447487305652417;endAngle=0.09140345256385528;rotation=-75;" vertex="1" parent="1">
          <mxGeometry x="455" y="430" width="50" height="50" as="geometry" />
        </mxCell>
        <mxCell id="mXD4jLkLA2wHn8T7_V_Z-64" value="" style="verticalLabelPosition=bottom;verticalAlign=top;html=1;shape=mxgraph.basic.arc;startAngle=0.32447487305652417;endAngle=0.09140345256385528;rotation=15;strokeColor=default;gradientColor=none;" vertex="1" parent="1">
          <mxGeometry x="280" y="255" width="50" height="50" as="geometry" />
        </mxCell>
        <mxCell id="mXD4jLkLA2wHn8T7_V_Z-65" value="" style="endArrow=classic;html=1;rounded=0;strokeWidth=0;startSize=6;endSize=9;entryX=0.046;entryY=0.294;entryDx=0;entryDy=0;entryPerimeter=0;exitX=0.647;exitY=0.01;exitDx=0;exitDy=0;exitPerimeter=0;" edge="1" parent="1" source="mXD4jLkLA2wHn8T7_V_Z-64" target="mXD4jLkLA2wHn8T7_V_Z-31">
          <mxGeometry width="50" height="50" relative="1" as="geometry">
            <mxPoint x="300" y="240" as="sourcePoint" />
            <mxPoint x="323" y="264" as="targetPoint" />
          </mxGeometry>
        </mxCell>
        <mxCell id="mXD4jLkLA2wHn8T7_V_Z-68" value="" style="endArrow=classic;html=1;rounded=0;strokeWidth=0;startSize=6;endSize=9;entryX=0.706;entryY=0.953;entryDx=0;entryDy=0;entryPerimeter=0;exitX=0.855;exitY=0.854;exitDx=0;exitDy=0;exitPerimeter=0;" edge="1" parent="1" source="mXD4jLkLA2wHn8T7_V_Z-63" target="mXD4jLkLA2wHn8T7_V_Z-30">
          <mxGeometry width="50" height="50" relative="1" as="geometry">
            <mxPoint x="520" y="464" as="sourcePoint" />
            <mxPoint x="500" y="440" as="targetPoint" />
          </mxGeometry>
        </mxCell>
        <mxCell id="mXD4jLkLA2wHn8T7_V_Z-69" value="" style="endArrow=classic;html=1;rounded=0;strokeWidth=0;entryX=0.709;entryY=0.047;entryDx=0;entryDy=0;entryPerimeter=0;startSize=6;endSize=9;exitX=0.586;exitY=0.014;exitDx=0;exitDy=0;exitPerimeter=0;" edge="1" parent="1" source="mXD4jLkLA2wHn8T7_V_Z-56" target="mXD4jLkLA2wHn8T7_V_Z-12">
          <mxGeometry width="50" height="50" relative="1" as="geometry">
            <mxPoint x="520" y="90" as="sourcePoint" />
            <mxPoint x="520" y="120" as="targetPoint" />
          </mxGeometry>
        </mxCell>
        <mxCell id="mXD4jLkLA2wHn8T7_V_Z-70" value="" style="endArrow=classic;html=1;rounded=0;strokeWidth=0;entryX=0.954;entryY=0.71;entryDx=0;entryDy=0;entryPerimeter=0;startSize=6;endSize=9;exitX=0.636;exitY=0.03;exitDx=0;exitDy=0;exitPerimeter=0;" edge="1" parent="1" source="mXD4jLkLA2wHn8T7_V_Z-54" target="mXD4jLkLA2wHn8T7_V_Z-29">
          <mxGeometry width="50" height="50" relative="1" as="geometry">
            <mxPoint x="670" y="320" as="sourcePoint" />
            <mxPoint x="680" y="244" as="targetPoint" />
          </mxGeometry>
        </mxCell>
      </root>
    </mxGraphModel>
  </diagram>
</mxfile>
